<?xml version="1.0" encoding="utf-8"?>
<!-- Generator: Adobe Illustrator 15.1.0, SVG Export Plug-In  -->
<!DOCTYPE svg PUBLIC "-//W3C//DTD SVG 1.1//EN" "http://www.w3.org/Graphics/SVG/1.1/DTD/svg11.dtd" [
	<!ENTITY ns_flows "http://ns.adobe.com/Flows/1.0/">
]>
<svg version="1.1"
	 xmlns="http://www.w3.org/2000/svg" xmlns:xlink="http://www.w3.org/1999/xlink" xmlns:a="http://ns.adobe.com/AdobeSVGViewerExtensions/3.0/"
	 x="0px" y="0px" width="13px" height="11px" viewBox="0 0 13 11" enable-background="new 0 0 13 11" xml:space="preserve">
<defs>
</defs>
<rect fill="#3AAFDA" width="13" height="11"/>
<path fill="#FFFFFF" d="M12.9,1.2c-0.5,0.2-1,0.4-1.5,0.4c0.5-0.3,1-0.8,1.2-1.5c-0.5,0.3-1.1,0.5-1.7,0.6C10.4,0.3,9.7,0,9,0
	C7.5,0,6.3,1.2,6.3,2.6c0,0.2,0,0.4,0.1,0.6C4.2,3.1,2.3,2.1,1,0.5C0.8,0.9,0.6,1.3,0.6,1.8c0,0.9,0.5,1.7,1.2,2.2
	C1.4,4,1,3.9,0.6,3.7v0C0.6,5,1.5,6,2.7,6.3C2.5,6.3,2.3,6.4,2,6.4c-0.2,0-0.3,0-0.5,0c0.3,1,1.3,1.8,2.5,1.8C3.1,8.8,2,9.3,0.7,9.3
	c-0.2,0-0.4,0-0.6,0c1.2,0.7,2.5,1.2,4,1.2c4.8,0,7.5-4,7.5-7.5c0-0.1,0-0.2,0-0.3C12.1,2.2,12.6,1.8,12.9,1.2z"/>
<rect id="_x3C_スライス_x3E__2_" fill="none" width="13" height="11"/>
</svg>
