<?xml version="1.0" encoding="utf-8"?>
<!-- Generator: Adobe Illustrator 15.1.0, SVG Export Plug-In  -->
<!DOCTYPE svg PUBLIC "-//W3C//DTD SVG 1.1//EN" "http://www.w3.org/Graphics/SVG/1.1/DTD/svg11.dtd" [
	<!ENTITY ns_flows "http://ns.adobe.com/Flows/1.0/">
]>
<svg version="1.1"
	 xmlns="http://www.w3.org/2000/svg" xmlns:xlink="http://www.w3.org/1999/xlink" xmlns:a="http://ns.adobe.com/AdobeSVGViewerExtensions/3.0/"
	 x="0px" y="0px" width="215px" height="100px" viewBox="167 120 215 100" enable-background="new 167 120 215 100"
	 xml:space="preserve">
<defs>
</defs>
<rect fill="#FFFFFF" width="533" height="587"/>
<path opacity="0.15" fill="#AF8C3C" d="M270.178,149.353c-2.276-1.001-4.935,0.032-5.939,2.314c-0.746,1.699-0.36,3.608,0.829,4.887
	c-4.512,9.827-12.805,16.93-15.728,16.549c-2.92-0.381-9.447-14.147-9.624-24.959c1.604-0.691,2.729-2.285,2.729-4.141
	c0-2.49-2.021-4.508-4.509-4.508c-2.49,0-4.509,2.018-4.509,4.508c0,1.856,1.126,3.45,2.729,4.141
	c-0.177,10.812-6.704,24.578-9.624,24.959c-2.923,0.381-11.216-6.722-15.73-16.549c1.192-1.279,1.579-3.188,0.832-4.887
	c-1.003-2.282-3.663-3.315-5.941-2.314c-2.277,1.002-3.312,3.661-2.312,5.939c0.738,1.677,2.374,2.68,4.093,2.693
	c4.567,11.795,7.723,25.302,10.184,31.953c1.161,3.135,7.815,4.843,20.279,4.843c12.462,0,19.118-1.708,20.279-4.843
	c2.46-6.651,5.615-20.157,10.183-31.953c1.719-0.013,3.355-1.017,4.092-2.693C273.492,153.014,272.46,150.354,270.178,149.353z
	 M208.272,155.221c-0.962,0.423-2.08-0.014-2.503-0.976c-0.423-0.962,0.013-2.084,0.974-2.507c0.96-0.423,2.082,0.013,2.504,0.977
	C209.672,153.675,209.236,154.796,208.272,155.221z M236.033,144.002c0-1.049,0.855-1.901,1.904-1.901s1.899,0.852,1.899,1.901
	c0,1.051-0.851,1.9-1.899,1.9S236.033,145.053,236.033,144.002z M237.937,191.612c-9.885,0-17.896-1.77-17.896-2.567
	s8.012-2.564,17.896-2.564s17.896,1.766,17.896,2.564S247.821,191.612,237.937,191.612z M255.453,184.905
	c-4.649-1.219-9.61-1.983-17.517-1.977c-7.906-0.006-12.868,0.758-17.517,1.977c-1.658,0.437-2.179,0.021-0.502-0.538
	c4.705-1.557,9.855-2.523,18.02-2.529c8.164,0.006,13.314,0.972,18.02,2.529C257.633,184.926,257.111,185.342,255.453,184.905z
	 M256.735,180.966c-4.954-1.297-10.373-2.114-18.799-2.105c-8.426-0.009-13.844,0.808-18.8,2.105
	c-1.765,0.466-2.32,0.088-0.535-0.507c5.014-1.659,10.638-2.688,19.334-2.694c8.697,0.006,14.32,1.036,19.334,2.694
	C259.056,181.054,258.501,181.432,256.735,180.966z M270.106,154.245c-0.424,0.962-1.545,1.398-2.506,0.976
	c-0.962-0.425-1.399-1.545-0.976-2.506c0.421-0.963,1.544-1.4,2.505-0.977C270.089,152.161,270.526,153.283,270.106,154.245z"/>
<g opacity="0.15">
	<g>
		<g>
			<path fill="#AF8C3C" d="M301.226,182.124c0.397,0,0.575,0.265,0.53,0.752l-0.885,7.7c-0.089,0.398-0.31,0.62-0.752,0.62h-18.055
				c-0.486,0-0.708-0.221-0.708-0.664v-0.664c0-0.31,0-0.531,0.089-0.841c1.062-4.071,4.026-8.098,8.895-12.036l0.708-0.575
				c2.345-1.947,4.026-3.319,4.823-4.425c1.106-1.504,1.682-3.142,1.682-4.867c0-2.345-0.753-4.115-2.302-5.31
				c-1.105-0.841-2.478-1.283-4.026-1.283c-2.522,0-4.337,0.796-5.487,2.434c-0.619,0.885-0.929,1.77-0.974,2.699
				c1.416,0.044,2.124,0.752,2.124,2.08c0,1.46-0.708,2.168-2.124,2.168c-1.726,0-2.61-1.018-2.61-2.965
				c0-2.036,0.841-3.85,2.478-5.487c1.727-1.682,3.938-2.566,6.727-2.566c2.61,0,4.779,0.664,6.549,2.035
				c2.035,1.593,3.098,3.717,3.098,6.417c0,1.858-0.531,3.54-1.638,5.089c-1.018,1.46-3.009,3.142-5.974,5.044l-1.238,0.796
				c-4.779,3.098-7.611,6.505-8.452,10.222h11.727c1.813,0,3.009-0.443,3.54-1.239c0.53-0.664,1.018-2.124,1.46-4.469
				c0.089-0.442,0.354-0.664,0.752-0.664H301.226z"/>
			<path fill="none" stroke="#AF8C3C" stroke-linecap="round" stroke-linejoin="round" d="M301.226,182.124
				c0.397,0,0.575,0.265,0.53,0.752l-0.885,7.7c-0.089,0.398-0.31,0.62-0.752,0.62h-18.055c-0.486,0-0.708-0.221-0.708-0.664v-0.664
				c0-0.31,0-0.531,0.089-0.841c1.062-4.071,4.026-8.098,8.895-12.036l0.708-0.575c2.345-1.947,4.026-3.319,4.823-4.425
				c1.106-1.504,1.682-3.142,1.682-4.867c0-2.345-0.753-4.115-2.302-5.31c-1.105-0.841-2.478-1.283-4.026-1.283
				c-2.522,0-4.337,0.796-5.487,2.434c-0.619,0.885-0.929,1.77-0.974,2.699c1.416,0.044,2.124,0.752,2.124,2.08
				c0,1.46-0.708,2.168-2.124,2.168c-1.726,0-2.61-1.018-2.61-2.965c0-2.036,0.841-3.85,2.478-5.487
				c1.727-1.682,3.938-2.566,6.727-2.566c2.61,0,4.779,0.664,6.549,2.035c2.035,1.593,3.098,3.717,3.098,6.417
				c0,1.858-0.531,3.54-1.638,5.089c-1.018,1.46-3.009,3.142-5.974,5.044l-1.238,0.796c-4.779,3.098-7.611,6.505-8.452,10.222
				h11.727c1.813,0,3.009-0.443,3.54-1.239c0.53-0.664,1.018-2.124,1.46-4.469c0.089-0.442,0.354-0.664,0.752-0.664H301.226z"/>
		</g>
		<g>
			<path fill="#AF8C3C" d="M323.97,169.203c0,0.354-0.575,0.752-1.77,1.195v23.718c0,0.442-0.266,0.708-0.708,0.708h-1.239
				c-0.442,0-0.664-0.266-0.664-0.708v-22.169c-1.637,2.965-3.407,5.62-5.31,8.009c-0.31,0.354-0.664,0.398-0.974,0.088
				c-0.266-0.177-0.222-0.442,0-0.796c4.071-6.195,7.301-14.072,9.646-23.542c0.089-0.442,0.442-0.619,0.885-0.486
				c2.346,0.619,3.496,1.239,3.496,1.858c0,0.442-0.664,0.708-1.947,0.885c-1.106,3.496-2.39,6.859-3.85,10.089
				C323.129,168.362,323.97,168.76,323.97,169.203z M339.192,191.328l0.442-1.416c2.08-6.505,3.496-13.275,4.646-20.311
				c0.088-0.487,0.397-0.664,0.885-0.531c2.478,0.752,3.717,1.504,3.717,2.124c0,0.398-0.619,0.664-1.902,0.752
				c-1.814,7.124-3.895,13.585-6.239,19.382h7.257l1.991-2.788c0.266-0.398,0.531-0.531,0.708-0.398
				c0.044,0.088,0.133,0.177,0.221,0.265c0.841,0.93,1.638,1.814,2.346,2.699c0.222,0.31,0.266,0.576,0.089,0.93
				c-0.178,0.265-0.398,0.398-0.797,0.398h-27.568c-0.397,0-0.663-0.177-0.796-0.575c-0.089-0.31,0.133-0.531,0.663-0.531H339.192z
				 M336.758,165.486v-8.585c0-0.442,0.266-0.708,0.709-0.664c2.566,0.133,3.805,0.487,3.805,1.106c0,0.442-0.663,0.841-1.991,1.239
				v6.903h7.346l1.903-2.655c0.266-0.398,0.619-0.442,0.973-0.088c0.841,0.885,1.682,1.726,2.346,2.522
				c0.266,0.31,0.266,0.575,0.089,0.929c-0.178,0.265-0.398,0.398-0.797,0.398h-24.957c-0.398,0-0.664-0.177-0.753-0.531
				c-0.132-0.354,0.089-0.575,0.62-0.575H336.758z M329.28,170.309c4.115,6.505,6.194,11.815,6.194,15.93
				c0,1.814-0.575,2.743-1.726,2.743c-0.841,0-1.283-0.929-1.371-2.699c-0.311-4.602-1.682-9.735-4.16-15.354
				c-0.177-0.443-0.088-0.708,0.222-0.93C328.749,169.822,329.059,169.911,329.28,170.309z"/>
			<path fill="none" stroke="#AF8C3C" stroke-linecap="round" stroke-linejoin="round" d="M323.97,169.203
				c0,0.354-0.575,0.752-1.77,1.195v23.718c0,0.442-0.266,0.708-0.708,0.708h-1.239c-0.442,0-0.664-0.266-0.664-0.708v-22.169
				c-1.637,2.965-3.407,5.62-5.31,8.009c-0.31,0.354-0.664,0.398-0.974,0.088c-0.266-0.177-0.222-0.442,0-0.796
				c4.071-6.195,7.301-14.072,9.646-23.542c0.089-0.442,0.442-0.619,0.885-0.486c2.346,0.619,3.496,1.239,3.496,1.858
				c0,0.442-0.664,0.708-1.947,0.885c-1.106,3.496-2.39,6.859-3.85,10.089C323.129,168.362,323.97,168.76,323.97,169.203z
				 M339.192,191.328l0.442-1.416c2.08-6.505,3.496-13.275,4.646-20.311c0.088-0.487,0.397-0.664,0.885-0.531
				c2.478,0.752,3.717,1.504,3.717,2.124c0,0.398-0.619,0.664-1.902,0.752c-1.814,7.124-3.895,13.585-6.239,19.382h7.257
				l1.991-2.788c0.266-0.398,0.531-0.531,0.708-0.398c0.044,0.088,0.133,0.177,0.221,0.265c0.841,0.93,1.638,1.814,2.346,2.699
				c0.222,0.31,0.266,0.576,0.089,0.93c-0.178,0.265-0.398,0.398-0.797,0.398h-27.568c-0.397,0-0.663-0.177-0.796-0.575
				c-0.089-0.31,0.133-0.531,0.663-0.531H339.192z M336.758,165.486v-8.585c0-0.442,0.266-0.708,0.709-0.664
				c2.566,0.133,3.805,0.487,3.805,1.106c0,0.442-0.663,0.841-1.991,1.239v6.903h7.346l1.903-2.655
				c0.266-0.398,0.619-0.442,0.973-0.088c0.841,0.885,1.682,1.726,2.346,2.522c0.266,0.31,0.266,0.575,0.089,0.929
				c-0.178,0.265-0.398,0.398-0.797,0.398h-24.957c-0.398,0-0.664-0.177-0.753-0.531c-0.132-0.354,0.089-0.575,0.62-0.575H336.758z
				 M329.28,170.309c4.115,6.505,6.194,11.815,6.194,15.93c0,1.814-0.575,2.743-1.726,2.743c-0.841,0-1.283-0.929-1.371-2.699
				c-0.311-4.602-1.682-9.735-4.16-15.354c-0.177-0.443-0.088-0.708,0.222-0.93C328.749,169.822,329.059,169.911,329.28,170.309z"/>
		</g>
	</g>
</g>
<rect id="_x3C_スライス_x3E__5_" x="167" y="120" fill="none" width="215" height="100"/>
<line display="none" fill="none" stroke="#00CBFE" stroke-miterlimit="10" stroke-dasharray="1,1" x1="103.5" y1="220.002" x2="381" y2="220.002"/>
<line display="none" fill="none" stroke="#00CBFE" stroke-miterlimit="10" x1="381.5" y1="220.002" x2="382" y2="220.002"/>
<rect x="187" y="138.998" display="none" fill="none" width="195" height="73"/>
<text transform="matrix(1 0 0 1 187 151.0293)" display="none"><tspan x="0" y="0" display="inline" fill="#333333" font-family="'MS-PGothic'" font-size="14">駒澤大学　グローバルメディ</tspan><tspan x="164.664" y="0" display="inline" fill="#333333" font-family="'MS-PGothic'" font-size="14" letter-spacing="3">ア</tspan><tspan x="180.742" y="0" display="inline" fill="#333333" font-family="'MS-PGothic'" font-size="14">・</tspan><tspan x="0" y="24.5" display="inline" fill="#333333" font-family="'MS-PGothic'" font-size="14">スタディーズ学部</tspan><tspan x="0" y="49" display="inline" fill="#333333" font-family="'MS-PGothic'" font-size="14">ダミー太郎</tspan></text>
</svg>
